<svg width="110" height="110" viewBox="0 0 110 110" fill="none" xmlns="http://www.w3.org/2000/svg">
<g clip-path="url(#clip0)">
<path fill-rule="evenodd" clip-rule="evenodd" d="M94.8316 102.414V106.211L91.0359 106.208V102.414H94.8316ZM30.3629 109.999H34.1531V106.211H30.3629V109.999ZM64.4937 3.79162H68.2811V0.00323643H64.4909V3.79162H64.4937ZM75.8697 26.5518H79.6599V22.7634H75.8697V26.5518ZM68.2839 26.5518H72.0741L72.0714 22.7634H68.2811V26.5518H68.2839ZM60.698 26.5518H64.4882L64.4855 22.7634H60.6953V26.5518H60.698ZM83.4528 87.242H87.243L87.2403 83.4536H83.4419L83.4501 87.242H83.4528ZM79.6599 34.1367H83.4555L83.4474 30.3456H79.6572L79.6599 34.1367ZM72.0741 109.999H79.6572L79.6708 106.211H72.0768V109.999H72.0741ZM91.0359 34.1394H87.2484L87.2457 41.7243H91.0332V37.9305H94.8044L94.8261 30.3456H91.0359L91.0387 34.1394H91.0359ZM30.3574 11.3765H37.9405V7.58543H41.7335V3.79705H37.9432V7.58815L34.1476 7.59087V0.00323643H30.3574V11.3792V11.3765ZM98.619 41.7243H94.8288V45.5154H98.5946L98.619 41.7243L102.409 41.7216V37.9305H106.202V34.1367H109.995V30.3456H98.5946L98.619 41.7243ZM49.3193 15.1703H56.9024L56.8997 0.000518799H49.341L49.3193 15.1703ZM7.60536 102.414H18.9787V91.0385H7.60264L7.60536 102.414ZM91.0359 18.9642H102.409V7.58815H91.0332L91.0359 18.9642ZM7.60536 18.9642H18.9787V7.58815H7.60264L7.60536 18.9642ZM72.0714 11.3765H75.867V15.1703L72.0714 15.1731V11.3765ZM72.0741 7.58815H68.2811V11.3792H64.4882L64.4855 7.58815H60.6953V11.3765H64.4855V15.1703H68.2784V18.9642H75.8615V15.1731H79.6517V7.59087H75.8588V3.79705H72.0714V7.59087L72.0741 7.58815ZM3.80973 3.79162H22.7716V22.7607H22.0108H3.80701V3.79162H3.80973ZM0.0195262 26.5518H26.5645V0.00323643H0.0195262V26.5518ZM3.80973 87.242H22.7716V106.211H3.80973V87.242ZM0.0168092 110.002H26.5618V83.4536H0.0168092V110.002ZM87.2403 3.79433H106.202L106.199 22.7634H87.2376L87.2403 3.79433ZM83.4501 26.5545H109.995V0.00595406H83.4501L83.4528 26.5545H83.4501ZM83.4474 102.42V94.8323H87.243V102.423L83.4474 102.42ZM75.8643 98.6261V94.8323H79.6599V98.6288L75.8643 98.6261ZM64.4991 91.0385H72.0741L72.0469 94.835H64.4855L64.4991 91.0385ZM72.0714 75.8687L72.0822 79.6598H75.8643V83.4563H68.2811V87.2501H64.4855L64.5127 83.4563H56.9051V87.2447H60.698V91.0412H56.9051V94.835L53.1122 94.8323V98.6288H49.322V102.42H45.5264V94.8323H41.7389V98.6261L34.1531 98.6234L34.1666 94.8296H37.946L37.9949 91.0358H49.3247V94.8296H53.1149L53.1394 72.0694H56.9105V75.8632L64.4937 75.8659V72.0721H60.698V67.3489C58.9646 68.1506 57.0355 68.599 55.0005 68.599C53.9925 68.599 53.009 68.4876 52.0634 68.281H49.3247L49.3465 75.8687H45.5291L45.5427 72.0748H41.7389V75.8687H37.9432L37.9324 68.281H41.7335L41.7362 64.4899H37.9405L37.9432 60.6961H34.1531V64.4899H30.3574V56.9023L37.9432 56.905V53.1139H30.3574V45.5263H37.9432V53.1139H41.5351C41.5867 52.7443 41.6547 52.3774 41.7362 52.016V49.3201H42.6491C43.3012 47.9097 44.1869 46.6297 45.2547 45.529H41.7335L41.7824 41.7352H37.9405V37.9387H41.7307L41.7335 34.1476H34.1476V30.351H37.9378L37.9405 26.5599H34.1476V22.7661H37.9405V26.5599H41.7307V22.7661H45.5264V26.5572H49.3166V22.7634H53.1095V26.5599L49.3166 26.5572V30.351H41.7335V34.1421H49.3166V30.3483H53.1095V37.9359H56.9024V41.5422C58.2392 41.7298 59.5107 42.1129 60.6926 42.6592V34.1421H64.4855V37.9359H68.2784V41.7325H64.4882V45.2763C64.5725 45.3578 64.654 45.4393 64.7328 45.5236H68.2784L68.2811 41.7298H72.0741V45.5209H75.867L75.8887 53.1085H72.0714V49.3147H68.2839V52.122C68.4849 53.0514 68.5909 54.0162 68.5909 55.0054C68.5909 55.6495 68.5447 56.28 68.4605 56.8996L79.6626 56.9023L79.6599 60.6961H75.8697V64.4899H72.0795V72.0748H68.2839L68.2866 64.4899H64.7382C64.6594 64.5742 64.5779 64.6557 64.4937 64.7345V72.0721H68.2866V75.8659H64.4964L64.4828 79.657H68.2866L68.2893 75.8659H72.0822L72.0714 75.8687ZM79.6545 79.6598H91.0332L91.0549 91.0439H79.6545V79.6598ZM45.5481 83.4536H49.3193L49.341 87.2501H45.5237L45.5508 83.4536H45.5481ZM98.6163 68.2837H94.8261L94.837 72.0776H87.243L87.1941 75.8714H79.6545L79.6436 72.0776H75.8643V75.8714H72.0686V72.0776H75.8588V68.281L79.6545 68.2837L79.6517 72.0748H83.4419V68.2865H79.649V60.6988H94.818V56.9077H91.0251V53.1139H87.2321V49.3174H91.0278V53.1085H98.6136V60.6961H94.8234V64.4899H91.0332V68.2783L94.8207 68.281V64.4872H98.6136V68.281L98.6163 68.2837ZM3.71463 53.1085H7.59992V41.727H15.183V37.9332L18.976 37.9359V34.1421H26.5618V37.9387H18.976L18.8809 41.7298H26.5618V45.5263H22.7716V49.3174H26.5645V53.1139H22.7689V49.3228H18.976L18.8836 45.529H11.3956V49.3201H15.1885V60.7016H11.3956V53.1139H7.60808L7.60536 64.4927H11.401L11.2081 68.2865H18.9841V72.0803H15.1939L15.1912 75.8741H11.3983V68.2892H7.60536V64.4981H3.81244L3.72006 53.1166L3.71463 53.1085ZM49.3166 42.6483V41.7298H45.5264V45.2491C46.6267 44.1811 47.9064 43.2978 49.3193 42.6483H49.3166ZM41.5324 56.9023H37.9405V60.6934H41.7335V64.4872H45.252C43.2849 62.468 41.9427 59.8346 41.5324 56.905V56.9023ZM15.1858 60.6934H18.9787V64.4899H15.1858V60.6934ZM22.7716 53.1085V56.8996H26.5645V60.6961H22.7689L22.7716 56.9023H18.9787V53.1058L22.7743 53.1085H22.7716ZM72.0686 41.7298V37.9332L75.8643 37.9359V41.7298H72.0686ZM102.407 102.42H106.202V106.214H109.99V91.0439L106.197 91.0412V87.2501H102.407V91.0385H106.197L106.208 98.6261H98.6136V102.42L94.8207 102.417L94.7962 98.6261H91.0251L91.0495 94.8296H98.6082L98.6218 91.0412H94.8153V87.2447H98.6082V79.657H106.191V75.8687H102.398V72.0748H98.6055L98.6544 68.2783H106.194L106.205 72.0694H109.984V68.281H106.191V64.4899H98.6055V60.6961H102.396V53.1112H106.191V60.6961H109.979V41.7325H106.189V49.3201H91.0169V45.529H83.4338V56.9077H79.6382V41.7325H83.4284V37.9414H75.8452L75.8697 34.1503H68.2594L68.2621 30.3565H56.8834V22.7716L53.0932 22.7688L53.0823 18.9777H49.303V22.7716H45.5101V15.1866H41.7226V18.9805H34.1368V15.1894H30.3466V18.9805H34.1395V22.7743H30.3493V26.5627H34.1422V30.3565H11.3901V34.1503H3.80429V30.3592H0.0140922V34.1503H3.80701L3.80429 45.5317H0.0140922L-0.0103607 49.3228H3.80701L3.80429 53.1194H0.0140922V64.4954L3.80701 64.4981V68.2892L7.59721 68.2919V75.8768L11.3874 75.8795L11.3385 79.6706H15.1776V75.8795H18.9705L19.0629 79.6706H26.5509V75.8822H18.9651V72.0884H26.5482V68.3001H18.9624V64.5035L30.3411 64.5062V68.2973H34.134L34.1096 72.0939H30.3411V75.8822L37.9269 75.885V79.6761H41.7199V83.4726H34.134V79.6788H30.3438V98.6424H34.1368V102.434H41.7226V110.021H45.5101L45.5128 106.227H49.303V102.434H53.0959V110.021H56.8834V106.227H60.6763V102.434H64.4692V98.6397H68.2648V102.434H72.0523V98.6397H75.848V102.431H83.4311V106.222H91.0142V110.013H98.5973V106.219H102.39V102.425L102.407 102.42Z" fill="white"/>
<path d="M51.8863 58.2448H48.9982V55.4647H52.0276C52.0276 55.4647 53.1253 55.4511 53.1253 56.8942C53.1253 58.0954 52.3238 58.234 51.8891 58.2448H51.8863ZM48.9982 51.5377H51.6364H52.0276C52.0276 51.5377 52.7639 51.5377 52.7639 52.6193C52.7639 53.701 52.3319 53.8586 51.8401 53.8586H49.0009V51.5377H48.9982ZM53.3834 54.4374C53.3834 54.4374 54.9701 54.3206 54.9701 52.4563C54.9701 50.5947 53.6714 49.687 52.0276 49.687H48.9982H48.9085H46.6127V60.0928H48.9085H48.9982H52.0276C52.0276 60.0928 55.3315 60.1961 55.3315 57.0219C55.3315 57.0219 55.4755 54.4374 53.3834 54.4374Z" fill="white"/>
<path d="M61.7924 50.3012H57.4996V51.5812H61.7924V50.3012Z" fill="white"/>
<path d="M61.3659 55.4647H57.948C57.948 55.4647 58.1708 53.8613 59.7792 53.8613C61.3849 53.8613 61.3659 55.4647 61.3659 55.4647ZM59.7385 52.3367C55.739 52.3367 55.7418 56.3343 55.7418 56.3343C55.7418 56.3343 55.4673 60.3102 59.7385 60.3102C59.7385 60.3102 63.2977 60.5141 63.2977 57.5437H61.4665C61.4665 57.5437 61.5262 58.6633 59.7982 58.6633C59.7982 58.6633 57.967 58.7856 57.967 56.8534H63.3575C63.3575 56.8534 63.9471 52.3367 59.7357 52.3367H59.7385Z" fill="white"/>
<path d="M55 42.6973C58.3962 42.6973 61.4719 44.0751 63.6971 46.3009C65.9223 48.5266 67.2998 51.603 67.2998 55C67.2998 58.3971 65.9223 61.4734 63.6971 63.6992C61.4719 65.9249 58.3962 67.3027 55 67.3027C51.6038 67.3027 48.5281 65.9249 46.3029 63.6992C44.0777 61.4734 42.7002 58.3971 42.7002 55C42.7002 51.603 44.0777 48.5266 46.3029 46.3009C48.5281 44.0751 51.6038 42.6973 55 42.6973ZM62.9418 47.0591C60.9095 45.0263 58.1028 43.7681 55 43.7681C51.8999 43.7681 49.0906 45.0263 47.0583 47.0591C45.026 49.0919 43.768 51.8992 43.768 55.0027C43.768 58.1063 45.026 60.9136 47.0583 62.9464C49.0906 64.9792 51.8972 66.2374 55 66.2374C58.1001 66.2374 60.9095 64.9819 62.9418 62.9464C64.9741 60.9136 66.232 58.1063 66.232 55.0027C66.232 51.9019 64.9768 49.0919 62.9418 47.0591Z" fill="white"/>
</g>
<defs>
<clipPath id="clip0">
<rect width="110" height="110" fill="white"/>
</clipPath>
</defs>
</svg>
